<?xml version="1.0" encoding="utf-8"?>
<!-- Generator: Adobe Illustrator 17.1.0, SVG Export Plug-In . SVG Version: 6.00 Build 0)  -->
<!DOCTYPE svg PUBLIC "-//W3C//DTD SVG 1.1//EN" "http://www.w3.org/Graphics/SVG/1.1/DTD/svg11.dtd">
<svg version="1.1" id="Layer_1" xmlns="http://www.w3.org/2000/svg" xmlns:xlink="http://www.w3.org/1999/xlink" x="0px" y="0px"
	 viewBox="0 0 100 100" enable-background="new 0 0 100 100" xml:space="preserve">
<path fill="none" stroke="#FFFFFF" stroke-width="3" stroke-linecap="round" stroke-linejoin="round" stroke-miterlimit="10" d="
	M80.2,73.5c0,5.8-4.7,10.5-10.5,10.5s-10.5-4.7-10.5-10.5S64,63.1,69.8,63.1S80.2,67.8,80.2,73.5z M86.6,36.3c-3.9,0-7,3.1-7,7
	s3.1,7,7,7c3.9,0,7-3.1,7-7S90.5,36.3,86.6,36.3z M35.8,67.4c-3.9,0-7,3.1-7,7c0,3.9,3.1,7,7,7s7-3.1,7-7
	C42.8,70.5,39.6,67.4,35.8,67.4z M63.5,17.5h-57v40h8.3l2.3,9.1l8.7-9.1h37.6V17.5z M20.3,32.3c-2.1,0-3.9,1.7-3.9,3.9
	s1.7,3.9,3.9,3.9s3.9-1.7,3.9-3.9S22.5,32.3,20.3,32.3z M34.8,32.3c-2.1,0-3.9,1.7-3.9,3.9s1.7,3.9,3.9,3.9s3.9-1.7,3.9-3.9
	S36.9,32.3,34.8,32.3z M49.2,32.3c-2.1,0-3.9,1.7-3.9,3.9s1.7,3.9,3.9,3.9s3.9-1.7,3.9-3.9S51.4,32.3,49.2,32.3z M59,74.5H43
	 M76.4,65.5l6.5-15.2 M89.5,37l2.7-6.3 M27,75.5h-6"/>
</svg>
